<?xml version="1.0" standalone="no"?>
<!DOCTYPE svg PUBLIC "-//W3C//DTD SVG 20010904//EN"
 "http://www.w3.org/TR/2001/REC-SVG-20010904/DTD/svg10.dtd">
<svg version="1.0" xmlns="http://www.w3.org/2000/svg"
 width="400.000000pt" height="400.000000pt" viewBox="0 0 400.000000 400.000000"
 preserveAspectRatio="xMidYMid meet">
<metadata>
Created by potrace 1.14, written by Peter Selinger 2001-2017
</metadata>
<g transform="translate(0.000000,400.000000) scale(0.100000,-0.100000)"
fill="#000000" stroke="none">
<path d="M1075 3644 c-103 -21 -278 -81 -295 -103 -3 -3 -16 -12 -30 -20 -48
-27 -147 -117 -194 -176 -81 -103 -134 -214 -161 -340 -21 -101 -17 -2000 5
-2000 2 0 10 -36 12 -57 1 -10 6 -18 10 -18 4 0 7 -3 6 -7 -2 -5 6 -28 16 -53
11 -25 20 -47 21 -50 0 -3 9 -18 19 -35 11 -16 26 -40 33 -53 34 -56 178 -202
200 -202 7 0 13 -3 13 -7 0 -7 96 -66 110 -68 3 -1 23 -9 45 -19 22 -10 54
-20 70 -23 17 -3 32 -8 35 -11 5 -7 16 -9 125 -17 39 -3 85 -7 103 -10 17 -2
32 0 32 5 0 5 6 7 13 4 24 -9 98 -10 103 -2 3 5 10 5 16 2 15 -10 78 -11 78
-2 0 4 10 4 23 0 27 -9 48 -9 65 1 6 5 12 5 12 0 0 -4 20 -8 45 -8 25 0 45 3
45 8 0 4 8 4 17 -2 10 -5 26 -5 40 0 13 5 23 5 23 1 0 -4 18 -7 40 -7 22 -1
40 3 40 8 0 4 8 4 17 -2 10 -5 26 -5 40 0 13 5 23 5 23 1 0 -4 20 -7 45 -7 25
0 45 5 45 10 0 7 3 7 8 0 4 -5 21 -10 37 -10 17 0 33 5 37 10 5 6 8 5 8 -4 0
-10 3 -11 13 -2 8 6 17 8 20 5 9 -9 107 -11 107 -2 0 4 11 3 25 -2 18 -7 25
-6 25 3 0 7 3 8 8 2 9 -12 52 -15 52 -3 0 5 7 5 16 0 9 -5 34 -6 55 -2 21 4
39 5 39 1 0 -9 63 -7 77 2 7 5 13 5 13 0 0 -4 23 -8 50 -8 28 0 50 5 50 10 0
7 3 7 8 0 4 -5 21 -10 37 -10 17 0 33 5 37 10 5 6 8 5 8 -4 0 -10 3 -11 13 -2
8 6 17 8 20 5 7 -7 107 -11 107 -4 0 3 34 6 76 7 73 1 220 40 252 65 6 6 12 7
12 4 0 -4 13 2 29 13 16 12 32 21 35 21 14 0 121 85 168 134 46 47 155 196
143 196 -2 0 4 16 16 36 11 20 18 39 15 42 -3 3 -1 11 4 18 6 6 13 20 15 30
34 142 34 135 34 1069 1 568 -3 933 -9 954 -5 19 -12 53 -16 75 -3 23 -9 42
-14 44 -5 2 -6 10 -3 19 4 11 2 14 -5 9 -6 -4 -10 1 -10 11 1 17 -39 112 -51
123 -8 6 -29 41 -38 60 -4 8 -17 24 -30 36 -13 12 -23 26 -23 33 0 6 -3 11 -7
11 -5 1 -37 28 -73 60 -35 33 -70 60 -77 60 -7 0 -13 5 -13 10 0 6 -5 10 -11
10 -6 0 -17 7 -26 15 -8 8 -19 13 -24 10 -5 -4 -9 -2 -9 3 0 5 -8 12 -17 15
-10 3 -45 15 -78 27 -131 49 -132 49 -1105 48 -503 0 -924 -2 -935 -4z"/>
</g>
</svg>
